<svg xmlns="http://www.w3.org/2000/svg" width="420" height="280" viewBox="0 0 420 280" role="img" aria-labelledby="title desc">
  <title id="title">Hero card 3</title>
  <desc id="desc">Rounded tariff cards</desc>
  <rect width="420" height="280" rx="44" fill="#140021"/>
  <path d="M0 45 H420 M0 140 H420 M0 235 H420" stroke="#7f3cff" stroke-width="1.2" opacity=".11"/>
  <path d="M76 0 V280 M210 0 V280 M344 0 V280" stroke="#7f3cff" stroke-width="1.2" opacity=".09"/>
  <circle cx="302" cy="105" r="130" fill="#ff4fd8" opacity=".15"/>
  <circle cx="126" cy="185" r="102" fill="#00d1ff" opacity=".16"/>
  <rect x="80" y="88" width="260" height="104" rx="24" fill="#3d2b49" stroke="#7f3cff" opacity=".90"/>
  <rect x="80" y="88" width="260" height="54" rx="24" fill="#7f3cff" opacity=".18"/>
  <rect x="105" y="134" width="196" height="350" rx="16" fill="#e8e6e9" stroke="#7f3cff" opacity=".92"/>
  <rect x="128" y="176" width="178" height="18" rx="9" fill="#ff4fd8" opacity=".82"/>
  <rect x="128" y="250" width="130" height="18" rx="9" fill="#b7aec1" opacity=".38"/>
  <rect x="128" y="324" width="154" height="18" rx="9" fill="#b7aec1" opacity=".38"/>
  <rect x="128" y="398" width="178" height="18" rx="9" fill="#b7aec1" opacity=".38"/>
  <rect x="350" y="134" width="196" height="350" rx="16" fill="#e8e6e9" stroke="#7f3cff" opacity=".92"/>
  <rect x="373" y="176" width="178" height="18" rx="9" fill="#ff4fd8" opacity=".82"/>
  <rect x="373" y="250" width="130" height="18" rx="9" fill="#b7aec1" opacity=".38"/>
  <rect x="373" y="324" width="154" height="18" rx="9" fill="#b7aec1" opacity=".38"/>
  <rect x="373" y="398" width="178" height="18" rx="9" fill="#b7aec1" opacity=".38"/>
  <rect x="595" y="134" width="196" height="350" rx="16" fill="#e8e6e9" stroke="#7f3cff" opacity=".92"/>
  <rect x="618" y="176" width="178" height="18" rx="9" fill="#ff4fd8" opacity=".82"/>
  <rect x="618" y="250" width="130" height="18" rx="9" fill="#b7aec1" opacity=".38"/>
  <rect x="618" y="324" width="154" height="18" rx="9" fill="#b7aec1" opacity=".38"/>
  <rect x="618" y="398" width="178" height="18" rx="9" fill="#b7aec1" opacity=".38"/>
  <path d="M130 158 H290" stroke="#00d1ff" stroke-width="10" stroke-linecap="round" opacity=".64"/>
</svg>
