<svg xmlns="http://www.w3.org/2000/svg" width="720" height="960" viewBox="0 0 720 960" role="img" aria-labelledby="title desc">
  <title id="title">AeroVector Fleet</title>
  <desc id="desc">Mobile crop</desc>
  <rect width="720" height="960" rx="44" fill="#050b18"/>
  <path d="M0 154 H720 M0 480 H720 M0 806 H720" stroke="#ff6f2c" stroke-width="1.2" opacity=".11"/>
  <path d="M130 0 V960 M360 0 V960 M590 0 V960" stroke="#ff6f2c" stroke-width="1.2" opacity=".09"/>
  <circle cx="576" cy="120" r="135" fill="#4cc9f0" opacity=".15"/>
  <circle cx="146" cy="865" r="105" fill="#223456" opacity=".16"/>
  <rect x="62" y="76" width="596" height="808" rx="18" fill="#323742" stroke="#ff6f2c" opacity=".86"/>
  <path d="M86 840 C220 180 350 420 484 230 S720 210 634 112" fill="none" stroke="#4cc9f0" stroke-width="8" opacity=".56"/>
  <path d="M120 770 C260 330 424 392 576 270 S760 168 600 210" fill="none" stroke="#223456" stroke-width="4" opacity=".62"/>
  <circle cx="192" cy="194" r="10" fill="#ff6f2c" opacity=".92"/>
  <circle cx="325" cy="273" r="14" fill="#4cc9f0" opacity=".92"/>
  <circle cx="458" cy="352" r="18" fill="#ff6f2c" opacity=".92"/>
  <circle cx="591" cy="431" r="10" fill="#4cc9f0" opacity=".92"/>
  <circle cx="184" cy="510" r="14" fill="#ff6f2c" opacity=".92"/>
  <circle cx="317" cy="589" r="18" fill="#4cc9f0" opacity=".92"/>
  <circle cx="450" cy="668" r="10" fill="#ff6f2c" opacity=".92"/>
  <circle cx="583" cy="747" r="14" fill="#4cc9f0" opacity=".92"/>
  <circle cx="176" cy="826" r="18" fill="#ff6f2c" opacity=".92"/>
  <circle cx="309" cy="129" r="10" fill="#4cc9f0" opacity=".92"/>
  <circle cx="442" cy="208" r="14" fill="#ff6f2c" opacity=".92"/>
</svg>
