<svg xmlns="http://www.w3.org/2000/svg" width="720" height="960" viewBox="0 0 720 960" role="img" aria-labelledby="title desc">
  <title id="title">HarborLine Services</title>
  <desc id="desc">Mobile crop</desc>
  <rect width="720" height="960" rx="44" fill="#ecf8ff"/>
  <path d="M0 154 H720 M0 480 H720 M0 806 H720" stroke="#40b4e5" stroke-width="1.2" opacity=".11"/>
  <path d="M130 0 V960 M360 0 V960 M590 0 V960" stroke="#40b4e5" stroke-width="1.2" opacity=".09"/>
  <circle cx="581" cy="117" r="150" fill="#9ad7f5" opacity=".15"/>
  <circle cx="142" cy="865" r="114" fill="#003a5d" opacity=".16"/>
  <rect x="62" y="76" width="596" height="808" rx="18" fill="#13496a" stroke="#40b4e5" opacity=".86"/>
  <path d="M86 840 C220 180 350 420 484 230 S720 210 634 112" fill="none" stroke="#9ad7f5" stroke-width="8" opacity=".56"/>
  <path d="M120 770 C260 330 424 392 576 270 S760 168 600 210" fill="none" stroke="#003a5d" stroke-width="4" opacity=".62"/>
  <circle cx="176" cy="178" r="10" fill="#40b4e5" opacity=".92"/>
  <circle cx="309" cy="257" r="14" fill="#9ad7f5" opacity=".92"/>
  <circle cx="442" cy="336" r="18" fill="#40b4e5" opacity=".92"/>
  <circle cx="575" cy="415" r="10" fill="#9ad7f5" opacity=".92"/>
  <circle cx="168" cy="494" r="14" fill="#40b4e5" opacity=".92"/>
  <circle cx="301" cy="573" r="18" fill="#9ad7f5" opacity=".92"/>
  <circle cx="434" cy="652" r="10" fill="#40b4e5" opacity=".92"/>
  <circle cx="567" cy="731" r="14" fill="#9ad7f5" opacity=".92"/>
  <circle cx="160" cy="810" r="18" fill="#40b4e5" opacity=".92"/>
  <circle cx="293" cy="113" r="10" fill="#9ad7f5" opacity=".92"/>
  <circle cx="426" cy="192" r="14" fill="#40b4e5" opacity=".92"/>
</svg>
