<svg xmlns="http://www.w3.org/2000/svg" width="960" height="640" viewBox="0 0 960 640" role="img" aria-labelledby="title desc">
  <title id="title">HarborLine Company Partners</title>
  <desc id="desc">icon or texture detail following Maritime corporate clarity with pale blue, logistics forms, and route tracking</desc>
  <rect width="960" height="640" rx="44" fill="#ecf8ff"/>
  <path d="M0 102 H960 M0 320 H960 M0 538 H960" stroke="#40b4e5" stroke-width="1.2" opacity=".11"/>
  <path d="M173 0 V640 M480 0 V640 M787 0 V640" stroke="#40b4e5" stroke-width="1.2" opacity=".09"/>
  <circle cx="842" cy="105" r="160" fill="#9ad7f5" opacity=".15"/>
  <circle cx="126" cy="545" r="120" fill="#003a5d" opacity=".16"/>
  <rect x="62" y="76" width="836" height="488" rx="18" fill="#13496a" stroke="#40b4e5" opacity=".86"/>
  <path d="M86 520 C220 180 350 420 484 230 S720 210 874 112" fill="none" stroke="#9ad7f5" stroke-width="8" opacity=".56"/>
  <path d="M120 450 C260 330 424 392 576 270 S760 168 840 210" fill="none" stroke="#003a5d" stroke-width="4" opacity=".62"/>
  <circle cx="114" cy="116" r="10" fill="#40b4e5" opacity=".92"/>
  <circle cx="247" cy="195" r="14" fill="#9ad7f5" opacity=".92"/>
  <circle cx="380" cy="274" r="18" fill="#40b4e5" opacity=".92"/>
  <circle cx="513" cy="353" r="10" fill="#9ad7f5" opacity=".92"/>
  <circle cx="646" cy="432" r="14" fill="#40b4e5" opacity=".92"/>
  <circle cx="779" cy="511" r="18" fill="#9ad7f5" opacity=".92"/>
  <circle cx="132" cy="134" r="10" fill="#40b4e5" opacity=".92"/>
  <circle cx="265" cy="213" r="14" fill="#9ad7f5" opacity=".92"/>
  <circle cx="398" cy="292" r="18" fill="#40b4e5" opacity=".92"/>
  <circle cx="531" cy="371" r="10" fill="#9ad7f5" opacity=".92"/>
  <circle cx="664" cy="450" r="14" fill="#40b4e5" opacity=".92"/>
</svg>
