<svg xmlns="http://www.w3.org/2000/svg" width="420" height="280" viewBox="0 0 420 280" role="img" aria-labelledby="title desc">
  <title id="title">Testing card 2</title>
  <desc id="desc">Engineering proof cards</desc>
  <rect width="420" height="280" rx="0" fill="#ffffff"/>
  <path d="M0 45 H420 M0 140 H420 M0 235 H420" stroke="#e21b2d" stroke-width="1.2" opacity=".11"/>
  <path d="M76 0 V280 M210 0 V280 M344 0 V280" stroke="#e21b2d" stroke-width="1.2" opacity=".09"/>
  <circle cx="305" cy="103" r="155" fill="#111111" opacity=".15"/>
  <circle cx="124" cy="185" r="117" fill="#7f8c8d" opacity=".16"/>
  <rect x="80" y="88" width="260" height="104" rx="24" fill="#242424" stroke="#e21b2d" opacity=".90"/>
  <rect x="80" y="88" width="260" height="54" rx="24" fill="#e21b2d" opacity=".18"/>
  <rect x="105" y="134" width="196" height="350" rx="16" fill="#ffffff" stroke="#e21b2d" opacity=".92"/>
  <rect x="128" y="176" width="154" height="18" rx="9" fill="#111111" opacity=".82"/>
  <rect x="128" y="250" width="178" height="18" rx="9" fill="#545454" opacity=".38"/>
  <rect x="128" y="324" width="130" height="18" rx="9" fill="#545454" opacity=".38"/>
  <rect x="128" y="398" width="154" height="18" rx="9" fill="#545454" opacity=".38"/>
  <rect x="350" y="134" width="196" height="350" rx="16" fill="#ffffff" stroke="#e21b2d" opacity=".92"/>
  <rect x="373" y="176" width="154" height="18" rx="9" fill="#111111" opacity=".82"/>
  <rect x="373" y="250" width="178" height="18" rx="9" fill="#545454" opacity=".38"/>
  <rect x="373" y="324" width="130" height="18" rx="9" fill="#545454" opacity=".38"/>
  <rect x="373" y="398" width="154" height="18" rx="9" fill="#545454" opacity=".38"/>
  <rect x="595" y="134" width="196" height="350" rx="16" fill="#ffffff" stroke="#e21b2d" opacity=".92"/>
  <rect x="618" y="176" width="154" height="18" rx="9" fill="#111111" opacity=".82"/>
  <rect x="618" y="250" width="178" height="18" rx="9" fill="#545454" opacity=".38"/>
  <rect x="618" y="324" width="130" height="18" rx="9" fill="#545454" opacity=".38"/>
  <rect x="618" y="398" width="154" height="18" rx="9" fill="#545454" opacity=".38"/>
  <path d="M130 158 H290" stroke="#7f8c8d" stroke-width="10" stroke-linecap="round" opacity=".64"/>
</svg>
