<svg xmlns="http://www.w3.org/2000/svg" width="1200" height="630" viewBox="0 0 1200 630" role="img" aria-labelledby="title desc">
  <title id="title">OrbitDesk Pricing</title>
  <desc id="desc">Software, SaaS Platforms &amp; Digital Products</desc>
  <rect width="1200" height="630" rx="44" fill="#08090d"/>
  <path d="M0 101 H1200 M0 315 H1200 M0 529 H1200" stroke="#5e6ad2" stroke-width="1.2" opacity=".11"/>
  <path d="M216 0 V630 M600 0 V630 M984 0 V630" stroke="#5e6ad2" stroke-width="1.2" opacity=".09"/>
  <circle cx="1077" cy="108" r="165" fill="#9b8cff" opacity=".15"/>
  <circle cx="130" cy="535" r="123" fill="#37d67a" opacity=".16"/>
  <rect x="80" y="88" width="1040" height="454" rx="24" fill="#333439" stroke="#5e6ad2" opacity=".90"/>
  <rect x="80" y="88" width="1040" height="54" rx="24" fill="#5e6ad2" opacity=".18"/>
  <rect x="105" y="134" width="196" height="350" rx="16" fill="#e6e6e7" stroke="#5e6ad2" opacity=".92"/>
  <rect x="128" y="176" width="130" height="18" rx="9" fill="#9b8cff" opacity=".82"/>
  <rect x="128" y="250" width="154" height="18" rx="9" fill="#b4b5bb" opacity=".38"/>
  <rect x="128" y="324" width="178" height="18" rx="9" fill="#b4b5bb" opacity=".38"/>
  <rect x="128" y="398" width="130" height="18" rx="9" fill="#b4b5bb" opacity=".38"/>
  <rect x="350" y="134" width="196" height="350" rx="16" fill="#e6e6e7" stroke="#5e6ad2" opacity=".92"/>
  <rect x="373" y="176" width="130" height="18" rx="9" fill="#9b8cff" opacity=".82"/>
  <rect x="373" y="250" width="154" height="18" rx="9" fill="#b4b5bb" opacity=".38"/>
  <rect x="373" y="324" width="178" height="18" rx="9" fill="#b4b5bb" opacity=".38"/>
  <rect x="373" y="398" width="130" height="18" rx="9" fill="#b4b5bb" opacity=".38"/>
  <rect x="595" y="134" width="196" height="350" rx="16" fill="#e6e6e7" stroke="#5e6ad2" opacity=".92"/>
  <rect x="618" y="176" width="130" height="18" rx="9" fill="#9b8cff" opacity=".82"/>
  <rect x="618" y="250" width="154" height="18" rx="9" fill="#b4b5bb" opacity=".38"/>
  <rect x="618" y="324" width="178" height="18" rx="9" fill="#b4b5bb" opacity=".38"/>
  <rect x="618" y="398" width="130" height="18" rx="9" fill="#b4b5bb" opacity=".38"/>
  <path d="M130 508 H1070" stroke="#37d67a" stroke-width="10" stroke-linecap="round" opacity=".64"/>
  <rect x="72" y="418" width="1056" height="132" rx="22" fill="#e6e6e7" opacity=".94"/>
  <text x="112" y="474" fill="#f7f8ff" font-family="Arial, sans-serif" font-size="42" font-weight="800">OrbitDesk Pricing</text>
  <text x="114" y="524" fill="#5e6ad2" font-family="Arial, sans-serif" font-size="24">Software, SaaS Platforms &amp; Digital Products</text>
</svg>
