<svg xmlns="http://www.w3.org/2000/svg" width="420" height="280" viewBox="0 0 420 280" role="img" aria-labelledby="title desc">
  <title id="title">Documents card 2</title>
  <desc id="desc">Tracking dashboard cards</desc>
  <rect width="420" height="280" rx="44" fill="#f4f8ff"/>
  <path d="M0 45 H420 M0 140 H420 M0 235 H420" stroke="#2563eb" stroke-width="1.2" opacity=".11"/>
  <path d="M76 0 V280 M210 0 V280 M344 0 V280" stroke="#2563eb" stroke-width="1.2" opacity=".09"/>
  <circle cx="290" cy="112" r="175" fill="#ff7a1a" opacity=".15"/>
  <circle cx="135" cy="185" r="129" fill="#a7c7ff" opacity=".16"/>
  <rect x="62" y="76" width="296" height="128" rx="18" fill="#21293b" stroke="#2563eb" opacity=".86"/>
  <path d="M86 160 C220 180 350 420 484 230 S720 210 334 112" fill="none" stroke="#ff7a1a" stroke-width="8" opacity=".56"/>
  <path d="M120 90 C260 330 424 392 576 270 S760 168 300 210" fill="none" stroke="#a7c7ff" stroke-width="4" opacity=".62"/>
  <circle cx="150" cy="152" r="10" fill="#2563eb" opacity=".92"/>
  <circle cx="283" cy="135" r="14" fill="#ff7a1a" opacity=".92"/>
  <circle cx="176" cy="118" r="18" fill="#2563eb" opacity=".92"/>
  <circle cx="309" cy="101" r="10" fill="#ff7a1a" opacity=".92"/>
  <circle cx="202" cy="180" r="14" fill="#2563eb" opacity=".92"/>
  <circle cx="95" cy="163" r="18" fill="#ff7a1a" opacity=".92"/>
  <circle cx="228" cy="146" r="10" fill="#2563eb" opacity=".92"/>
  <circle cx="121" cy="129" r="14" fill="#ff7a1a" opacity=".92"/>
  <circle cx="254" cy="112" r="18" fill="#2563eb" opacity=".92"/>
  <circle cx="147" cy="95" r="10" fill="#ff7a1a" opacity=".92"/>
  <circle cx="280" cy="174" r="14" fill="#2563eb" opacity=".92"/>
</svg>
