<svg xmlns="http://www.w3.org/2000/svg" width="420" height="280" viewBox="0 0 420 280" role="img" aria-labelledby="title desc">
  <title id="title">Hero card 2</title>
  <desc id="desc">Tracking dashboard cards</desc>
  <rect width="420" height="280" rx="44" fill="#f4f8ff"/>
  <path d="M0 45 H420 M0 140 H420 M0 235 H420" stroke="#2563eb" stroke-width="1.2" opacity=".11"/>
  <path d="M76 0 V280 M210 0 V280 M344 0 V280" stroke="#2563eb" stroke-width="1.2" opacity=".09"/>
  <circle cx="276" cy="120" r="120" fill="#ff7a1a" opacity=".15"/>
  <circle cx="145" cy="185" r="96" fill="#a7c7ff" opacity=".16"/>
  <rect x="62" y="76" width="296" height="128" rx="18" fill="#21293b" stroke="#2563eb" opacity=".86"/>
  <path d="M86 160 C220 180 350 420 484 230 S720 210 334 112" fill="none" stroke="#ff7a1a" stroke-width="8" opacity=".56"/>
  <path d="M120 90 C260 330 424 392 576 270 S760 168 300 210" fill="none" stroke="#a7c7ff" stroke-width="4" opacity=".62"/>
  <circle cx="191" cy="97" r="10" fill="#2563eb" opacity=".92"/>
  <circle cx="324" cy="176" r="14" fill="#ff7a1a" opacity=".92"/>
  <circle cx="217" cy="159" r="18" fill="#2563eb" opacity=".92"/>
  <circle cx="110" cy="142" r="10" fill="#ff7a1a" opacity=".92"/>
  <circle cx="243" cy="125" r="14" fill="#2563eb" opacity=".92"/>
  <circle cx="136" cy="108" r="18" fill="#ff7a1a" opacity=".92"/>
  <circle cx="269" cy="187" r="10" fill="#2563eb" opacity=".92"/>
  <circle cx="162" cy="170" r="14" fill="#ff7a1a" opacity=".92"/>
  <circle cx="295" cy="153" r="18" fill="#2563eb" opacity=".92"/>
  <circle cx="188" cy="136" r="10" fill="#ff7a1a" opacity=".92"/>
  <circle cx="321" cy="119" r="14" fill="#2563eb" opacity=".92"/>
</svg>
