<svg xmlns="http://www.w3.org/2000/svg" width="900" height="720" viewBox="0 0 900 720" role="img" aria-labelledby="title desc">
  <title id="title">TableFlame Booking</title>
  <desc id="desc">Tablet crop</desc>
  <rect width="900" height="720" rx="44" fill="#f8d7e8"/>
  <path d="M0 115 H900 M0 360 H900 M0 605 H900" stroke="#1b1b1b" stroke-width="1.2" opacity=".11"/>
  <path d="M162 0 V720 M450 0 V720 M738 0 V720" stroke="#1b1b1b" stroke-width="1.2" opacity=".09"/>
  <circle cx="790" cy="100" r="135" fill="#f2c94c" opacity=".15"/>
  <circle cx="120" cy="625" r="105" fill="#ffffff" opacity=".16"/>
  <rect x="60" y="64" width="780" height="592" rx="12" fill="#854c76" opacity=".64"/>
  <rect x="92" y="96" width="160" height="184" rx="18" fill="#854c76" stroke="#1b1b1b" opacity=".92"/>
  <rect x="290" y="96" width="160" height="184" rx="0" fill="#f2c94c" stroke="#1b1b1b" opacity=".92"/>
  <rect x="488" y="96" width="160" height="184" rx="18" fill="#ffffff" stroke="#1b1b1b" opacity=".92"/>
  <rect x="686" y="96" width="160" height="184" rx="0" fill="#f9deec" stroke="#1b1b1b" opacity=".92"/>
  <rect x="92" y="316" width="160" height="184" rx="18" fill="#854c76" stroke="#1b1b1b" opacity=".92"/>
  <rect x="290" y="316" width="160" height="184" rx="0" fill="#f2c94c" stroke="#1b1b1b" opacity=".92"/>
  <rect x="488" y="316" width="160" height="184" rx="18" fill="#ffffff" stroke="#1b1b1b" opacity=".92"/>
  <rect x="686" y="316" width="160" height="184" rx="0" fill="#f9deec" stroke="#1b1b1b" opacity=".92"/>
  <path d="M92 638 H808" stroke="#f2c94c" stroke-width="10" opacity=".72"/>
</svg>
